PathFileType	4	(X/Y/Z)	C:/Users/beibeiliu/ov580/test_trc/User3\sequence.41_training_dense_right.trc
DataRate	CameraRate	NumFrames	NumMarkers	Units	OrigDataRate	OrigDataStartFrame	OrigNumFrames
120	120	8	19	mm	120	151	301
Frame#	Time	ThumbCMC			ThumbMCP			ThumbIP			ThumbTip			IndexMCP			IndexPIP			IndexTip			MiddleMCP			MiddlePIP			MiddleTip			RingMCP			RingPIP			RingTip			PinkyMCP			PinkyPIP			PinkyTip			BackHand1			BackHand2			BackHand3	
		X0	Y0	Z0	X1	Y1	Z1	X2	Y2	Z2	X3	Y3	Z3	X4	Y4	Z4	X5	Y5	Z5	X6	Y6	Z6	X7	Y7	Z7	X8	Y8	Z8	X9	Y9	Z9	X10	Y10	Z10	X11	Y11	Z11	X12	Y12	Z12	X13	Y13	Z13	X14	Y14	Z14	X15	Y15	Z15	X16	Y16	Z16	X17	Y17	Z17	X18	Y18	Z18	
150	1.25	160.992	-60.766	-1.25765	155.743	-58.3358	-39.8922	146.111	-61.1778	-67.4738	127.783	-68.8573	-84.8369	157.979	-113.535	-54.3782	152.896	-115.517	-89.9427	150.785	-100.811	-109.919	139.212	-123.054	-61.8724	131.954	-118.171	-93.7005	127.541	-92.4796	-113.224	119.162	-115.162	-53.7521	110.293	-106.517	-81.8183	107.343	-72.6099	-92.9399	99.703	-108.129	-42.4891	93.3737	-102.225	-68.7062	91.8053	-80.1098	-81.798	119.961	-107.585	2.78013	118.974	-95.8295	27.2516	156.585	-96.5889	10.4107	
151	1.25833	160.299	-64.3102	0.558589	156.595	-60.6471	-37.2029	145.836	-71.078	-68.5493	128.244	-78.4212	-86.6502	157.509	-122.477	-55.9046	158.583	-125.313	-85.3887	148.041	-111.753	-111.159	135.409	-127.793	-58.6094	130.513	-123.017	-88.9218	125.437	-88.4956	-110.87	120.596	-123.189	-49.1261	111.197	-118.163	-80.0193	108.064	-87.6101	-93.3286	96.5979	-118.148	-36.5721	91.8152	-117.865	-62.4576	88.217	-99.8599	-84.622	122.719	-113.794	0.88089	120.155	-98.8559	28.373	155.415	-102.008	11.6272	
152	1.26667	163.699	-66.6083	-0.71073	155.644	-66.7916	-33.8118	149.937	-72.4284	-67.4613	132.822	-80.1243	-83.3843	158.284	-128.927	-54.4919	156.671	-132.429	-84.4777	148.743	-122.183	-108.704	134.9	-132.116	-60.9569	129.813	-123.326	-90.4393	123.663	-89.4449	-104.436	117.891	-130.989	-46.2169	111.852	-128.013	-77.0833	107.119	-96.5528	-94.1134	99.5978	-123.787	-31.0067	89.9989	-131.398	-57.6364	87.0289	-115.253	-83.7995	120.016	-118.35	7.03698	118.569	-104.028	31.0995	150.857	-103.588	15.2421	
153	1.275	161.588	-69.5335	-0.438282	154.342	-72.6659	-36.8613	148.283	-78.9719	-67.4616	132.388	-86.5487	-84.0638	159.238	-129.718	-51.6524	158.483	-136.114	-81.4038	148.777	-128.464	-110.136	134.366	-133.937	-58.3392	129.996	-122.527	-89.9299	119.33	-85.9497	-99.763	119.514	-136.29	-47.0535	110.355	-131.994	-77.4488	103.077	-105.876	-90.9144	95.7033	-130.504	-27.7387	92.1272	-139.006	-50.9389	85.9152	-129.281	-77.5651	121.698	-121.432	4.92617	123.305	-106.811	32.7045	152.204	-107.401	13.3863	
154	1.28333	159.275	-72.0168	-0.618519	156.081	-72.6586	-38.1354	147.244	-78.985	-63.6452	131.578	-88.4078	-83.0856	154.862	-134.198	-53.1011	156.855	-140.069	-78.4948	145.602	-134.154	-105.767	136.52	-134.913	-55.1907	125.965	-123.982	-88.5843	119.577	-87.3959	-98.2593	115.565	-140.473	-47.6271	108.29	-136.421	-74.3477	104.383	-105.283	-91.1467	99.3446	-131.989	-26.9282	88.1459	-142.848	-47.0609	82.963	-136.307	-75.9773	119.996	-121.431	8.92772	121.807	-110.043	31.9177	153.292	-109.974	12.9055	
155	1.29167	159.229	-71.3813	-1.52927	156.509	-69.6349	-39.3885	148.909	-74.5482	-67.7925	133.09	-83.2927	-82.4405	158.589	-131.063	-49.7197	152.416	-140.45	-79.9844	144.008	-133.51	-108.81	132.972	-136.041	-57.5429	127.391	-124.294	-89.0857	117.532	-90.3376	-97.9188	120.615	-139.223	-47.7269	106.697	-136.476	-72.8734	100.782	-107.207	-89.3348	97.5473	-135.277	-26.8508	91.8912	-144.989	-46.3686	82.7053	-136.697	-76.4904	124.815	-122.566	6.715	123.258	-109.831	30.3993	155.149	-105.527	13.0416	
156	1.3	160.009	-70.4757	-5.53624	153.067	-66.343	-35.8096	146.358	-72.9757	-68.2837	133.984	-79.0155	-88.5877	161.074	-129.21	-55.2823	157.952	-136.906	-82.0319	146.979	-130.913	-108.939	136.714	-134.606	-59.249	129.987	-124.891	-87.5655	115.142	-87.4404	-97.6644	122.237	-137.37	-47.2302	108.108	-134.612	-77.0359	102.013	-106.904	-90.528	100.573	-130.846	-26.1492	90.1584	-143.156	-49.5409	82.7704	-135.843	-77.985	127.896	-121.522	6.26734	127.741	-109.433	30.383	155.054	-107.738	10.7024	
157	1.30833	160.554	-63.3988	-5.06176	153.984	-62.8976	-37.7695	148.42	-66.3058	-70.4725	132.348	-76.4723	-91.8147	157.728	-124.09	-54.1237	154.904	-131.424	-85.369	145.484	-122.09	-111.591	137.193	-131.471	-58.0794	128.674	-121.04	-91.111	114.026	-87.2742	-98.7576	119.962	-135.937	-46.5542	114.881	-133.794	-76.5622	102.458	-107.023	-92.0574	104.551	-131.285	-31.586	95.005	-139.788	-54.1349	82.1561	-129.148	-81.0051	127.63	-117.402	4.64597	128.619	-103.575	29.8909	154.788	-100.328	11.4352	
